<svg width="135" height="161" viewBox="0 0 135 161" fill="none" xmlns="http://www.w3.org/2000/svg">
<path d="M89.6741 81.808C94.7598 81.808 98.8867 78.0802 98.8867 73.4802V67.3776C98.8867 66.1473 97.7864 65.1526 96.4253 65.1526H82.9232C81.5651 65.1526 80.4618 66.1473 80.4618 67.3776V73.4802C80.4618 78.0812 84.5854 81.808 89.6741 81.808Z" fill="black"/>
<path d="M45.0145 81.808C50.1002 81.808 54.2271 78.0802 54.2271 73.4802V67.3776C54.2271 66.1473 53.1268 65.1526 51.7657 65.1526H38.2636C36.9055 65.1526 35.8022 66.1473 35.8022 67.3776V73.4802C35.8022 78.0812 39.9285 81.808 45.0145 81.808Z" fill="black"/>
<path d="M130.953 90.7383H128.24C130.087 89.8356 131.525 88.2953 132.147 86.3856H97.2783C97.9005 88.2981 99.3387 89.8382 101.186 90.7383H90.6428V84.7829C90.6428 84.3007 90.2082 83.9079 89.6748 83.9079C89.1415 83.9079 88.7069 84.3007 88.7069 84.7829V90.7383H45.9816V84.7829C45.9816 84.3007 45.547 83.9079 45.0137 83.9079C44.4803 83.9079 44.0457 84.3007 44.0457 84.7829V90.7383H33.5028C35.3499 89.8356 36.7879 88.2953 37.4102 86.3856H2.53868C3.16094 88.2981 4.59907 89.8382 6.44609 90.7383H3.73369C1.67627 90.7383 0 92.2535 0 94.1134V99.3036C0 101.163 1.67616 102.679 3.73369 102.679H4.06556V104.951C4.06556 107.364 6.23657 109.326 8.9055 109.326H20.1753L9.03294 158.334H5.50078L10.7751 113.228C10.8304 112.747 10.4462 112.315 9.91483 112.265C9.38343 112.215 8.90537 112.563 8.85007 113.043L3.46295 159.118C3.4353 159.366 3.52123 159.611 3.70593 159.796C3.88866 159.981 4.15139 160.086 4.42501 160.086H9.82098C10.2803 160.086 10.6754 159.793 10.7692 159.386L22.1498 109.327L112.534 109.326L123.914 159.385C124.005 159.792 124.404 160.085 124.862 160.085H130.258C130.532 160.085 130.795 159.98 130.977 159.795C131.16 159.61 131.248 159.365 131.22 159.117L125.399 109.325H125.78C128.449 109.325 130.62 107.363 130.62 104.95V102.678H130.952C133.009 102.678 134.686 101.163 134.686 99.303V94.1128C134.687 92.2512 133.011 90.7383 130.953 90.7383ZM129.186 158.334H125.654L114.511 109.323H123.455L129.186 158.334ZM128.685 104.949C128.685 106.396 127.382 107.573 125.781 107.573H8.90578C7.30469 107.573 6.00197 106.396 6.00197 104.949V102.676H128.686L128.685 104.949ZM132.751 99.304C132.751 100.199 131.943 100.929 130.953 100.929H3.73551C2.7458 100.929 1.93785 100.199 1.93785 99.304V94.1138C1.93785 93.2192 2.7458 92.4888 3.73551 92.4888H130.953C131.943 92.4888 132.751 93.2192 132.751 94.1138V99.304Z" fill="black"/>
<path d="M9.92803 71.4354L16.7483 73.5229C16.8511 73.5551 16.9558 73.5703 17.0585 73.5703C17.4625 73.5703 17.8388 73.3399 17.9741 72.9756C18.146 72.5185 17.8744 72.0202 17.3687 71.8658L10.5483 69.7783C10.0426 69.6229 9.49148 69.8684 9.32059 70.3256C9.1507 70.7827 9.42233 71.281 9.92803 71.4354Z" fill="black"/>
<path d="M31.9418 59.2347C32.0801 59.5999 32.4564 59.8276 32.8574 59.8276C32.9601 59.8276 33.0678 59.8124 33.1695 59.7803C33.6752 59.6249 33.9469 59.1276 33.772 58.6705L31.4489 52.5079C31.277 52.0508 30.7269 51.8053 30.2212 51.9633C29.7154 52.1187 29.4438 52.616 29.6187 53.0731L31.9418 59.2347Z" fill="black"/>
<path d="M105.44 60.2224C105.544 60.2545 105.65 60.2697 105.752 60.2697C106.156 60.2697 106.529 60.042 106.668 59.6769L108.999 53.5171C109.172 53.0599 108.902 52.5617 108.396 52.4073C107.89 52.2519 107.339 52.4948 107.168 52.9519L104.837 59.1117C104.665 59.5697 104.934 60.0679 105.44 60.2224Z" fill="black"/>
<path d="M120.91 74.5943C121.012 74.5943 121.117 74.5791 121.22 74.547L128.043 72.4648C128.549 72.3095 128.823 71.8148 128.651 71.355C128.479 70.8978 127.932 70.6496 127.424 70.805L120.6 72.8872C120.095 73.0425 119.82 73.5372 119.992 73.997C120.127 74.3648 120.504 74.5943 120.91 74.5943Z" fill="black"/>
<path d="M68.3486 0C54.2624 0 42.8444 11.2375 42.8444 25.0968C42.8444 30.9706 44.861 35.5041 49.5105 42.3585C54.1562 49.2128 68.3486 68 68.3486 68C68.3486 68 82.5412 49.2171 87.1782 42.3585C91.8316 35.5078 93.8444 30.9706 93.8444 25.0968C93.8449 11.2375 82.4267 0 68.3486 0ZM68.3486 34.5855C63.0241 34.5855 58.7078 30.3375 58.7078 25.0972C58.7078 19.8645 63.0241 15.6089 68.3486 15.6089C73.6731 15.6089 77.9893 19.8643 77.9893 25.0972C77.9893 30.3375 73.6731 34.5855 68.3486 34.5855Z" fill="#5C11A6"/>
</svg>
